# xmcd
#
# Track frame offsets: 
#        150
#        11135
#        22083
#        33843
#        47537
#        58615
#        70193
#        81594
#        93026
#        105040
#        118037
#        130351
#        142399
#        154540
#        166493
#        178637
#        193474
#        206470
#        219912
#        231873
#        245662
#        256412
#        271774
#        284763
#        297678
#        309856
#        321830
#        332617
#        342509
#
# Disc length: 4704 seconds
#
# Revision: 0
# Processed by: cddbd v1.5.2PL0 Copyright (c) Steve Scherf et al.
# Submitted via: ExactAudioCopyFreeDBPlugin 1.0
#
DISCID=b7125e1d
DTITLE=Johnny "Guitar" Watson - The Original Gangster of Love: 1953-19
DTITLE=59
DYEAR=1900
DGENRE=
TTITLE0=Highway Sixty
TTITLE1=No I Can't
TTITLE2=Motorhead Baby
TTITLE3=Sad Fool
TTITLE4=I Got Eyes
TTITLE5=Walkin' To My Baby
TTITLE6=What's Going On
TTITLE7=Thinking
TTITLE8=Space Guitar
TTITLE9=Half Pint of Whiskey
TTITLE10=Getting Drunk
TTITLE11=You Can't Take It With You
TTITLE12=Hot Little Mama
TTITLE13=I Love To Love You
TTITLE14=Too Tired
TTITLE15=Don't Touch Me (I'm Gonna Hit the Highway)
TTITLE16=Those Lonely Lonely Nights
TTITLE17=Someone Cares For Me
TTITLE18=Oh Baby
TTITLE19=Give A Little
TTITLE20=Ruben
TTITLE21=Three Hours Past Midnight
TTITLE22=Love Me Baby
TTITLE23=She Moves Me
TTITLE24=Gangster of Love
TTITLE25=One Room Country Shack
TTITLE26=Honey
TTITLE27=Deanna Baby
TTITLE28=One More Kiss
EXTD=
EXTT0=
EXTT1=
EXTT2=
EXTT3=
EXTT4=
EXTT5=
EXTT6=
EXTT7=
EXTT8=
EXTT9=
EXTT10=
EXTT11=
EXTT12=
EXTT13=
EXTT14=
EXTT15=
EXTT16=
EXTT17=
EXTT18=
EXTT19=
EXTT20=
EXTT21=
EXTT22=
EXTT23=
EXTT24=
EXTT25=
EXTT26=
EXTT27=
EXTT28=
PLAYORDER=
